HIERARCHY
ROOT Hips
{
	OFFSET -1.602300 6.242603 43.997101
	CHANNELS 6 Xposition Yposition Zposition Zrotation Xrotation Yrotation
	JOINT Chest
	{
		OFFSET -0.204900 1.598101 7.917301
		CHANNELS 6 Xposition Yposition Zposition Zrotation Xrotation Yrotation
		JOINT Chest2
		{
			OFFSET 0.000000 0.000000 3.404099
			CHANNELS 6 Xposition Yposition Zposition Zrotation Xrotation Yrotation
			JOINT Neck
			{
				OFFSET 0.000000 0.000000 7.928600
				CHANNELS 6 Xposition Yposition Zposition Zrotation Xrotation Yrotation
				JOINT Head
				{
					OFFSET 0.000000 0.000000 2.173897
					CHANNELS 6 Xposition Yposition Zposition Zrotation Xrotation Yrotation
					End Site
					{
						OFFSET 0.000000 0.000001 10.404503
					}
				}
			}
			JOINT LeftCollar
			{
				OFFSET 2.833800 -1.396299 4.843300
				CHANNELS 6 Xposition Yposition Zposition Zrotation Xrotation Yrotation
				JOINT LeftShoulder
				{
					OFFSET 4.363600 0.000000 0.000000
					CHANNELS 6 Xposition Yposition Zposition Zrotation Xrotation Yrotation
					JOINT LeftElbow
					{
						OFFSET 0.000000 -0.000001 -10.306900
						CHANNELS 6 Xposition Yposition Zposition Zrotation Xrotation Yrotation
						JOINT LeftWrist
						{
							OFFSET 0.000000 -0.000001 -12.404900
							CHANNELS 6 Xposition Yposition Zposition Zrotation Xrotation Yrotation
							End Site
							{
								OFFSET 0.000000 0.000000 -2.173901
							}
						}
					}
				}
			}
			JOINT RightCollar
			{
				OFFSET -2.354800 -1.897200 5.063099
				CHANNELS 6 Xposition Yposition Zposition Zrotation Xrotation Yrotation
				JOINT RightShoulder
				{
					OFFSET -4.375800 0.000000 0.000000
					CHANNELS 6 Xposition Yposition Zposition Zrotation Xrotation Yrotation
					JOINT RightElbow
					{
						OFFSET 0.000000 -0.000001 -10.005001
						CHANNELS 6 Xposition Yposition Zposition Zrotation Xrotation Yrotation
						JOINT RightWrist
						{
							OFFSET 0.000000 -0.000001 -13.174900
							CHANNELS 6 Xposition Yposition Zposition Zrotation Xrotation Yrotation
							End Site
							{
								OFFSET 0.000000 0.000000 -2.173901
							}
						}
					}
				}
			}
		}
	}
	JOINT LeftHip
	{
		OFFSET 2.240600 0.386800 -2.614101
		CHANNELS 6 Xposition Yposition Zposition Zrotation Xrotation Yrotation
		JOINT LeftKnee
		{
			OFFSET 0.000000 -0.000001 -18.592899
			CHANNELS 6 Xposition Yposition Zposition Zrotation Xrotation Yrotation
			JOINT LeftAnkle
			{
				OFFSET 0.000000 -0.000001 -18.765800
				CHANNELS 6 Xposition Yposition Zposition Zrotation Xrotation Yrotation
				End Site
				{
					OFFSET 0.000000 -8.655000 0.000000
				}
			}
		}
	}
	JOINT RightHip
	{
		OFFSET -2.014900 -0.220900 -2.615898
		CHANNELS 6 Xposition Yposition Zposition Zrotation Xrotation Yrotation
		JOINT RightKnee
		{
			OFFSET 0.000000 -0.000001 -18.633900
			CHANNELS 6 Xposition Yposition Zposition Zrotation Xrotation Yrotation
			JOINT RightAnkle
			{
				OFFSET 0.000000 -0.000001 -18.285101
				CHANNELS 6 Xposition Yposition Zposition Zrotation Xrotation Yrotation
				End Site
				{
					OFFSET 0.000000 -7.524500 0.000000
				}
			}
		}
	}
}
MOTION
Frames: 4
Frame Time: 0.041667
-3.687200 17.483101 18.785505 -7.031819 24.514133 -0.351868 -0.204898 1.598101 7.917304 5.261055 9.314793 8.853542 0.000000 0.000002 3.404099 -4.773031 -10.128117 -1.274153 -0.000001 0.000001 7.928601 18.404875 -0.818064 -5.480447 -0.000001 0.000001 2.173898 -0.528179 -3.618761 -0.251911 2.833801 -1.396301 4.843307 1.408777 5.462201 11.725638 4.363597 0.000010 -0.000006 -61.361812 -24.973550 -114.269563 -0.000005 0.000006 -10.306905 -89.344864 -120.022379 -112.449024 0.000004 0.000003 -12.404897 -153.263530 188.956938 -112.394519 -2.354800 -1.897201 5.063103 19.327183 12.345124 1.969225 -4.375797 0.000008 0.000004 41.966489 -40.250479 56.642772 -0.000001 0.000011 -10.005004 -79.715404 -12.289564 -76.235143 -0.000004 0.000009 -13.174901 128.245790 -181.441038 100.652099 2.240599 0.386801 -2.614103 152.721746 -42.013177 138.067998 0.000004 -0.000000 -18.592894 -160.665529 23.007829 136.841392 -0.000002 -0.000002 -18.765799 42.456838 -4.356569 25.424046 -2.014896 -0.220897 -2.615898 -107.339606 -8.872214 -80.874672 -0.000006 0.000001 -18.633883 171.269548 6.405487 -140.824403 0.000008 -0.000005 -18.285088 3.189902 36.888400 -129.406595
-3.776700 17.596600 18.672310 -7.099331 24.420088 -0.710967 -0.204899 1.598099 7.917304 5.263238 9.552198 9.137174 0.000000 -0.000003 3.404101 -5.072056 -10.158631 -1.308680 -0.000001 -0.000001 7.928603 18.904584 -0.674549 -5.604770 -0.000000 -0.000000 2.173905 -0.555071 -3.662363 -0.209409 2.833800 -1.396302 4.843306 1.437919 4.907660 11.712016 4.363604 0.000005 -0.000009 -60.905787 -24.907581 -113.738455 -0.000004 0.000006 -10.306902 -89.237350 -120.070791 -112.733030 0.000005 0.000005 -12.404896 -152.843501 188.978603 -112.168672 -2.354800 -1.897202 5.063099 18.704511 11.885774 2.115225 -4.375796 0.000009 0.000001 43.009281 -39.320525 57.239786 0.000000 0.000012 -10.005005 -79.870197 -12.015087 -76.220376 -0.000007 0.000003 -13.174904 128.207377 -181.590920 101.471722 2.240598 0.386800 -2.614101 153.247165 -41.830442 138.311781 0.000005 -0.000002 -18.592886 -160.986630 22.429513 135.902186 -0.000002 -0.000002 -18.765800 41.399194 -3.719602 25.974236 -2.014898 -0.220896 -2.615901 -107.190462 -8.762544 -81.261732 -0.000005 0.000000 -18.633888 171.639334 6.553689 -141.185693 0.000008 -0.000006 -18.285088 2.142257 37.691863 -128.315035
-3.857900 17.708401 18.549206 -7.159540 24.332481 -1.045224 -0.204898 1.598101 7.917310 5.264066 9.755691 9.379480 0.000000 0.000001 3.404101 -5.365087 -10.190878 -1.340579 0.000000 0.000000 7.928599 19.399245 -0.520671 -5.705461 0.000000 -0.000000 2.173907 -0.562784 -3.711095 -0.152090 2.833802 -1.396299 4.843301 1.545402 4.753258 11.733713 4.363596 0.000012 -0.000008 -60.819495 -25.066398 -113.593989 -0.000004 0.000012 -10.306907 -89.260867 -120.198038 -113.071097 0.000009 0.000003 -12.404900 -152.467567 188.988261 -111.970679 -2.354800 -1.897201 5.063102 18.116964 11.445184 2.263580 -4.375794 0.000007 -0.000001 43.901563 -38.509491 57.710802 0.000000 0.000008 -10.005002 -79.923308 -11.791733 -76.216653 -0.000004 0.000007 -13.174904 128.114063 -181.745419 101.889914 2.240599 0.386801 -2.614103 153.728038 -41.657010 138.564813 0.000005 0.000002 -18.592894 -161.315025 21.928906 134.910839 -0.000002 -0.000003 -18.765799 40.577201 -3.137652 26.584987 -2.014896 -0.220893 -2.615898 -107.039549 -8.690938 -81.651647 -0.000005 0.000000 -18.633884 171.961569 6.695217 -141.569713 0.000007 -0.000005 -18.285088 1.591504 38.207983 -127.568727
-3.931700 17.818901 18.415911 -7.223708 24.211147 -1.374127 -0.204900 1.598101 7.917305 5.263509 10.007036 9.633351 -0.000000 0.000001 3.404105 -5.662408 -10.238223 -1.376852 0.000000 0.000001 7.928595 19.869037 -0.394370 -5.778739 -0.000000 -0.000000 2.173900 -0.538589 -3.744615 -0.080082 2.833802 -1.396298 4.843304 1.699393 4.556347 11.677738 4.363593 0.000007 -0.000004 -60.767421 -25.284310 -113.371223 -0.000003 0.000008 -10.306903 -89.325112 -120.325954 -113.433876 0.000009 0.000003 -12.404896 -152.128407 188.970762 -111.773116 -2.354799 -1.897199 5.063099 17.574919 11.017422 2.401084 -4.375797 0.000009 0.000002 44.599093 -37.870817 58.042210 -0.000001 0.000015 -10.005008 -79.809067 -11.701028 -76.273057 -0.000006 0.000004 -13.174902 127.903898 -181.786878 102.021593 2.240598 0.386803 -2.614104 154.178325 -41.576765 138.791998 0.000002 0.000001 -18.592894 -161.640784 21.635285 133.933316 -0.000001 -0.000003 -18.765799 39.886023 -2.361519 27.117979 -2.014897 -0.220894 -2.615899 -106.936003 -8.548346 -82.045469 -0.000006 0.000001 -18.633886 172.324307 6.762965 -141.978295 0.000008 -0.000003 -18.285088 1.352577 38.400123 -127.364491
